<?xml version="1.0" encoding="UTF-8" standalone="no"?>
<!DOCTYPE svg PUBLIC "-//W3C//DTD SVG 1.1//EN"
 "http://www.w3.org/Graphics/SVG/1.1/DTD/svg11.dtd">
<!-- Generated by graphviz version 5.0.0 (20220707.1540)
 -->
<!-- Title: graph_title Pages: 1 -->
<svg width="2297pt" height="718pt"
 viewBox="0.00 0.00 2297.00 718.00" xmlns="http://www.w3.org/2000/svg" xmlns:xlink="http://www.w3.org/1999/xlink">
<g id="graph0" class="graph" transform="scale(1 1) rotate(0) translate(4 714)">
<title>graph_title</title>
<polygon fill="white" stroke="transparent" points="-4,4 -4,-714 2293,-714 2293,4 -4,4"/>
<!-- Api -->
<g id="node1" class="node">
<title>Api</title>
<path fill="none" stroke="black" d="M1168.5,-0.5C1168.5,-0.5 1198.5,-0.5 1198.5,-0.5 1204.5,-0.5 1210.5,-6.5 1210.5,-12.5 1210.5,-12.5 1210.5,-35.5 1210.5,-35.5 1210.5,-41.5 1204.5,-47.5 1198.5,-47.5 1198.5,-47.5 1168.5,-47.5 1168.5,-47.5 1162.5,-47.5 1156.5,-41.5 1156.5,-35.5 1156.5,-35.5 1156.5,-12.5 1156.5,-12.5 1156.5,-6.5 1162.5,-0.5 1168.5,-0.5"/>
<text text-anchor="middle" x="1183.5" y="-32.3" font-family="Times,serif" font-size="14.00">Api</text>
<polyline fill="none" stroke="black" points="1156.5,-24.5 1210.5,-24.5 "/>
</g>
<!-- Api::Concerns -->
<g id="node2" class="node">
<title>Api::Concerns</title>
<path fill="none" stroke="black" d="M989,-85.5C989,-85.5 1060,-85.5 1060,-85.5 1066,-85.5 1072,-91.5 1072,-97.5 1072,-97.5 1072,-120.5 1072,-120.5 1072,-126.5 1066,-132.5 1060,-132.5 1060,-132.5 989,-132.5 989,-132.5 983,-132.5 977,-126.5 977,-120.5 977,-120.5 977,-97.5 977,-97.5 977,-91.5 983,-85.5 989,-85.5"/>
<text text-anchor="middle" x="1024.5" y="-117.3" font-family="Times,serif" font-size="14.00">Api::Concerns</text>
<polyline fill="none" stroke="black" points="977,-109.5 1072,-109.5 "/>
</g>
<!-- Api::Concerns&#45;&gt;Api -->
<g id="edge1" class="edge">
<title>Api::Concerns&#45;&gt;Api</title>
<path fill="none" stroke="black" d="M1067.95,-85.32C1092.13,-72.7 1121.95,-57.13 1145.24,-44.97"/>
<polygon fill="black" stroke="black" points="1145.46,-44.86 1148.93,-38.53 1156.1,-39.3 1152.63,-45.63 1145.46,-44.86"/>
</g>
<!-- Api::Concerns::ActAsApiRequest -->
<g id="node3" class="node">
<title>Api::Concerns::ActAsApiRequest</title>
<path fill="none" stroke="black" d="M532,-184.5C532,-184.5 773,-184.5 773,-184.5 779,-184.5 785,-190.5 785,-196.5 785,-196.5 785,-317.5 785,-317.5 785,-323.5 779,-329.5 773,-329.5 773,-329.5 532,-329.5 532,-329.5 526,-329.5 520,-323.5 520,-317.5 520,-317.5 520,-196.5 520,-196.5 520,-190.5 526,-184.5 532,-184.5"/>
<text text-anchor="middle" x="652.5" y="-314.3" font-family="Times,serif" font-size="14.00">Api::Concerns::ActAsApiRequest</text>
<polyline fill="none" stroke="black" points="520,-306.5 785,-306.5 "/>
<polyline fill="none" stroke="black" points="520,-282.5 785,-282.5 "/>
<text text-anchor="start" x="528" y="-267.3" font-family="Times,serif" font-size="14.00">I + check_json_request()</text>
<text text-anchor="start" x="528" y="-252.3" font-family="Times,serif" font-size="14.00">I + skip_session_storage()</text>
<text text-anchor="start" x="528" y="-237.3" font-family="Times,serif" font-size="14.00">I + render_error(status, message, _data = nil)</text>
<text text-anchor="start" x="528" y="-222.3" font-family="Times,serif" font-size="14.00">I &#45; request_content_type()</text>
<text text-anchor="start" x="528" y="-207.3" font-family="Times,serif" font-size="14.00">I &#45; request_with_body?()</text>
<text text-anchor="start" x="528" y="-192.3" font-family="Times,serif" font-size="14.00">I &#45; json_request?()</text>
</g>
<!-- Api::Concerns::ActAsApiRequest&#45;&gt;Api::Concerns -->
<g id="edge3" class="edge">
<title>Api::Concerns::ActAsApiRequest&#45;&gt;Api::Concerns</title>
<path fill="none" stroke="black" d="M785.23,-187.9C788.34,-186.56 791.43,-185.26 794.5,-184 851.06,-160.73 917.8,-139.96 964.78,-126.4"/>
<polygon fill="black" stroke="black" points="965.04,-126.32 969.71,-120.82 976.58,-123.02 971.91,-128.52 965.04,-126.32"/>
</g>
<!-- ActiveSupport::Concern -->
<g id="node21" class="node">
<title>ActiveSupport::Concern</title>
<ellipse fill="none" stroke="black" cx="1186.5" cy="-109" rx="96.68" ry="18"/>
<text text-anchor="middle" x="1186.5" y="-105.3" font-family="Times,serif" font-size="14.00">ActiveSupport::Concern</text>
</g>
<!-- Api::Concerns::ActAsApiRequest&#45;&gt;ActiveSupport::Concern -->
<g id="edge5" class="edge">
<title>Api::Concerns::ActAsApiRequest&#45;&gt;ActiveSupport::Concern</title>
<path fill="none" stroke="black" d="M785.02,-187.33C788.19,-186.16 791.35,-185.05 794.5,-184 825.11,-173.76 1048.83,-139.26 1080.5,-133 1092.33,-130.66 1104.88,-128.05 1117.05,-125.46"/>
<polygon fill="none" stroke="black" points="1118.11,-128.81 1127.15,-123.28 1116.64,-121.96 1118.11,-128.81"/>
<text text-anchor="middle" x="989.5" y="-154.8" font-family="Times,serif" font-size="14.00">extends</text>
</g>
<!-- Api::Concerns::Base64Converter -->
<g id="node4" class="node">
<title>Api::Concerns::Base64Converter</title>
<path fill="none" stroke="black" d="M1058,-199.5C1058,-199.5 1315,-199.5 1315,-199.5 1321,-199.5 1327,-205.5 1327,-211.5 1327,-211.5 1327,-302.5 1327,-302.5 1327,-308.5 1321,-314.5 1315,-314.5 1315,-314.5 1058,-314.5 1058,-314.5 1052,-314.5 1046,-308.5 1046,-302.5 1046,-302.5 1046,-211.5 1046,-211.5 1046,-205.5 1052,-199.5 1058,-199.5"/>
<text text-anchor="middle" x="1186.5" y="-299.3" font-family="Times,serif" font-size="14.00">Api::Concerns::Base64Converter</text>
<polyline fill="none" stroke="black" points="1046,-291.5 1327,-291.5 "/>
<polyline fill="none" stroke="black" points="1046,-267.5 1327,-267.5 "/>
<text text-anchor="start" x="1054" y="-252.3" font-family="Times,serif" font-size="14.00">I + base64_to_uploaded_file(input, filename)</text>
<text text-anchor="start" x="1054" y="-237.3" font-family="Times,serif" font-size="14.00">I + convert_file_params(param_names, params)</text>
<text text-anchor="start" x="1054" y="-222.3" font-family="Times,serif" font-size="14.00">I + converted_question_params_from(params)</text>
<text text-anchor="start" x="1054" y="-207.3" font-family="Times,serif" font-size="14.00">I + converted_answer_params_from(params)</text>
</g>
<!-- Api::Concerns::Base64Converter&#45;&gt;Api::Concerns -->
<g id="edge4" class="edge">
<title>Api::Concerns::Base64Converter&#45;&gt;Api::Concerns</title>
<path fill="none" stroke="black" d="M1123.4,-199.13C1101.36,-179.27 1077.46,-157.73 1058.68,-140.8"/>
<polygon fill="black" stroke="black" points="1058.54,-140.68 1051.41,-139.63 1049.63,-132.64 1056.76,-133.69 1058.54,-140.68"/>
</g>
<!-- Api::Concerns::Base64Converter&#45;&gt;ActiveSupport::Concern -->
<g id="edge6" class="edge">
<title>Api::Concerns::Base64Converter&#45;&gt;ActiveSupport::Concern</title>
<path fill="none" stroke="black" d="M1186.5,-199.13C1186.5,-177.78 1186.5,-154.5 1186.5,-137.08"/>
<polygon fill="none" stroke="black" points="1190,-137.06 1186.5,-127.06 1183,-137.06 1190,-137.06"/>
<text text-anchor="middle" x="1207.5" y="-154.8" font-family="Times,serif" font-size="14.00">extends</text>
</g>
<!-- Api::V1 -->
<g id="node5" class="node">
<title>Api::V1</title>
<path fill="none" stroke="black" d="M1357,-233.5C1357,-233.5 1394,-233.5 1394,-233.5 1400,-233.5 1406,-239.5 1406,-245.5 1406,-245.5 1406,-268.5 1406,-268.5 1406,-274.5 1400,-280.5 1394,-280.5 1394,-280.5 1357,-280.5 1357,-280.5 1351,-280.5 1345,-274.5 1345,-268.5 1345,-268.5 1345,-245.5 1345,-245.5 1345,-239.5 1351,-233.5 1357,-233.5"/>
<text text-anchor="middle" x="1375.5" y="-265.3" font-family="Times,serif" font-size="14.00">Api::V1</text>
<polyline fill="none" stroke="black" points="1345,-257.5 1406,-257.5 "/>
</g>
<!-- Api::V1&#45;&gt;Api -->
<g id="edge2" class="edge">
<title>Api::V1&#45;&gt;Api</title>
<path fill="none" stroke="black" d="M1369.42,-233.48C1358.9,-198.1 1334.32,-129.02 1292.5,-85 1272.99,-64.46 1244.86,-49.22 1222.07,-39.24"/>
<polygon fill="black" stroke="black" points="1221.79,-39.12 1214.71,-40.5 1210.71,-34.5 1217.79,-33.12 1221.79,-39.12"/>
</g>
<!-- Api::V1::ApiController -->
<g id="node6" class="node">
<title>Api::V1::ApiController</title>
<path fill="none" stroke="black" d="M1415.5,-381.5C1415.5,-381.5 1631.5,-381.5 1631.5,-381.5 1637.5,-381.5 1643.5,-387.5 1643.5,-393.5 1643.5,-393.5 1643.5,-484.5 1643.5,-484.5 1643.5,-490.5 1637.5,-496.5 1631.5,-496.5 1631.5,-496.5 1415.5,-496.5 1415.5,-496.5 1409.5,-496.5 1403.5,-490.5 1403.5,-484.5 1403.5,-484.5 1403.5,-393.5 1403.5,-393.5 1403.5,-387.5 1409.5,-381.5 1415.5,-381.5"/>
<text text-anchor="middle" x="1523.5" y="-481.3" font-family="Times,serif" font-size="14.00">Api::V1::ApiController</text>
<polyline fill="none" stroke="black" points="1403.5,-473.5 1643.5,-473.5 "/>
<polyline fill="none" stroke="black" points="1403.5,-449.5 1643.5,-449.5 "/>
<text text-anchor="start" x="1411.5" y="-434.3" font-family="Times,serif" font-size="14.00">I + status()</text>
<text text-anchor="start" x="1411.5" y="-419.3" font-family="Times,serif" font-size="14.00">I &#45; render_not_found(exception)</text>
<text text-anchor="start" x="1411.5" y="-404.3" font-family="Times,serif" font-size="14.00">I &#45; render_record_invalid(exception)</text>
<text text-anchor="start" x="1411.5" y="-389.3" font-family="Times,serif" font-size="14.00">I &#45; render_parameter_missing(exception)</text>
</g>
<!-- Api::V1::ApiController&#45;&gt;Api::Concerns::ActAsApiRequest -->
<g id="edge17" class="edge">
<title>Api::V1::ApiController&#45;&gt;Api::Concerns::ActAsApiRequest</title>
<path fill="none" stroke="black" d="M1403.28,-422.34C1219.36,-398.08 881.21,-352.14 795.2,-329.74"/>
<polygon fill="none" stroke="black" points="795.95,-326.32 785.38,-326.94 794.03,-333.05 795.95,-326.32"/>
<text text-anchor="middle" x="991.5" y="-351.8" font-family="Times,serif" font-size="14.00">includes</text>
</g>
<!-- Api::V1::ApiController&#45;&gt;Api::Concerns::Base64Converter -->
<g id="edge20" class="edge">
<title>Api::V1::ApiController&#45;&gt;Api::Concerns::Base64Converter</title>
<path fill="none" stroke="black" d="M1416.07,-381.37C1404.39,-375.19 1392.69,-368.97 1381.5,-363 1355.13,-348.94 1326.81,-333.74 1300.14,-319.39"/>
<polygon fill="none" stroke="black" points="1301.62,-316.21 1291.16,-314.55 1298.31,-322.38 1301.62,-316.21"/>
<text text-anchor="middle" x="1404.5" y="-351.8" font-family="Times,serif" font-size="14.00">includes</text>
</g>
<!-- Api::V1::ApiController&#45;&gt;Api::V1 -->
<g id="edge7" class="edge">
<title>Api::V1::ApiController&#45;&gt;Api::V1</title>
<path fill="none" stroke="black" d="M1460.92,-381.33C1445.15,-365.52 1428.91,-347.78 1415.5,-330 1406.6,-318.2 1398.37,-304.19 1391.71,-291.68"/>
<polygon fill="black" stroke="black" points="1391.56,-291.39 1385.26,-287.89 1386.07,-280.72 1392.37,-284.23 1391.56,-291.39"/>
</g>
<!-- ActionController::API -->
<g id="node16" class="node">
<title>ActionController::API</title>
<path fill="none" stroke="black" d="M1436.5,-233.5C1436.5,-233.5 1550.5,-233.5 1550.5,-233.5 1556.5,-233.5 1562.5,-239.5 1562.5,-245.5 1562.5,-245.5 1562.5,-268.5 1562.5,-268.5 1562.5,-274.5 1556.5,-280.5 1550.5,-280.5 1550.5,-280.5 1436.5,-280.5 1436.5,-280.5 1430.5,-280.5 1424.5,-274.5 1424.5,-268.5 1424.5,-268.5 1424.5,-245.5 1424.5,-245.5 1424.5,-239.5 1430.5,-233.5 1436.5,-233.5"/>
<text text-anchor="middle" x="1493.5" y="-265.3" font-family="Times,serif" font-size="14.00">ActionController::API</text>
<polyline fill="none" stroke="black" points="1424.5,-257.5 1562.5,-257.5 "/>
</g>
<!-- Api::V1::ApiController&#45;&gt;ActionController::API -->
<g id="edge16" class="edge">
<title>Api::V1::ApiController&#45;&gt;ActionController::API</title>
<path fill="none" stroke="black" d="M1514.01,-381.05C1509.05,-351.31 1503.16,-315.98 1498.97,-290.82"/>
<polygon fill="none" stroke="black" points="1502.38,-289.99 1497.28,-280.71 1495.48,-291.15 1502.38,-289.99"/>
</g>
<!-- Pundit::Authorization -->
<g id="node22" class="node">
<title>Pundit::Authorization</title>
<ellipse fill="none" stroke="black" cx="2040.5" cy="-257" rx="87.18" ry="18"/>
<text text-anchor="middle" x="2040.5" y="-253.3" font-family="Times,serif" font-size="14.00">Pundit::Authorization</text>
</g>
<!-- Api::V1::ApiController&#45;&gt;Pundit::Authorization -->
<g id="edge18" class="edge">
<title>Api::V1::ApiController&#45;&gt;Pundit::Authorization</title>
<path fill="none" stroke="black" d="M1643.61,-419.87C1730.01,-403.83 1847.69,-375.71 1943.5,-330 1969.88,-317.41 1996.29,-297.19 2014.87,-281.38"/>
<polygon fill="none" stroke="black" points="2017.33,-283.88 2022.59,-274.69 2012.74,-278.6 2017.33,-283.88"/>
<text text-anchor="middle" x="1924.5" y="-351.8" font-family="Times,serif" font-size="14.00">includes</text>
</g>
<!-- DeviseTokenAuth::Concerns::SetUserByToken -->
<g id="node23" class="node">
<title>DeviseTokenAuth::Concerns::SetUserByToken</title>
<ellipse fill="none" stroke="black" cx="1757.5" cy="-257" rx="177.37" ry="18"/>
<text text-anchor="middle" x="1757.5" y="-253.3" font-family="Times,serif" font-size="14.00">DeviseTokenAuth::Concerns::SetUserByToken</text>
</g>
<!-- Api::V1::ApiController&#45;&gt;DeviseTokenAuth::Concerns::SetUserByToken -->
<g id="edge19" class="edge">
<title>Api::V1::ApiController&#45;&gt;DeviseTokenAuth::Concerns::SetUserByToken</title>
<path fill="none" stroke="black" d="M1597.22,-381.29C1641.12,-347.52 1694.49,-306.47 1727.22,-281.3"/>
<polygon fill="none" stroke="black" points="1729.68,-283.81 1735.47,-274.94 1725.41,-278.27 1729.68,-283.81"/>
<text text-anchor="middle" x="1663.5" y="-351.8" font-family="Times,serif" font-size="14.00">includes</text>
</g>
<!-- Api::V1::ContestantsController -->
<g id="node7" class="node">
<title>Api::V1::ContestantsController</title>
<path fill="none" stroke="black" d="M1458,-549.5C1458,-549.5 1621,-549.5 1621,-549.5 1627,-549.5 1633,-555.5 1633,-561.5 1633,-561.5 1633,-682.5 1633,-682.5 1633,-688.5 1627,-694.5 1621,-694.5 1621,-694.5 1458,-694.5 1458,-694.5 1452,-694.5 1446,-688.5 1446,-682.5 1446,-682.5 1446,-561.5 1446,-561.5 1446,-555.5 1452,-549.5 1458,-549.5"/>
<text text-anchor="middle" x="1539.5" y="-679.3" font-family="Times,serif" font-size="14.00">Api::V1::ContestantsController</text>
<polyline fill="none" stroke="black" points="1446,-671.5 1633,-671.5 "/>
<polyline fill="none" stroke="black" points="1446,-647.5 1633,-647.5 "/>
<text text-anchor="start" x="1454" y="-632.3" font-family="Times,serif" font-size="14.00">I + index()</text>
<text text-anchor="start" x="1454" y="-617.3" font-family="Times,serif" font-size="14.00">I + create()</text>
<text text-anchor="start" x="1454" y="-602.3" font-family="Times,serif" font-size="14.00">I + update()</text>
<text text-anchor="start" x="1454" y="-587.3" font-family="Times,serif" font-size="14.00">I + show()</text>
<text text-anchor="start" x="1454" y="-572.3" font-family="Times,serif" font-size="14.00">I &#45; contestant_params()</text>
<text text-anchor="start" x="1454" y="-557.3" font-family="Times,serif" font-size="14.00">I &#45; set_contestant()</text>
</g>
<!-- Api::V1::ContestantsController&#45;&gt;Api::V1 -->
<g id="edge8" class="edge">
<title>Api::V1::ContestantsController&#45;&gt;Api::V1</title>
<path fill="none" stroke="black" d="M1455.23,-549.48C1423.6,-522.54 1395.03,-498.05 1394.5,-497 1360.84,-430.96 1364.82,-341.14 1370.36,-292.59"/>
<polygon fill="black" stroke="black" points="1370.36,-292.51 1367.14,-286.06 1371.85,-280.61 1375.08,-287.05 1370.36,-292.51"/>
</g>
<!-- Api::V1::ContestantsController&#45;&gt;Api::V1::ApiController -->
<g id="edge21" class="edge">
<title>Api::V1::ContestantsController&#45;&gt;Api::V1::ApiController</title>
<path fill="none" stroke="black" d="M1533.18,-549.46C1531.93,-535.31 1530.62,-520.51 1529.38,-506.53"/>
<polygon fill="none" stroke="black" points="1532.86,-506.17 1528.5,-496.52 1525.89,-506.79 1532.86,-506.17"/>
</g>
<!-- Api::V1::ExamsController -->
<g id="node8" class="node">
<title>Api::V1::ExamsController</title>
<path fill="none" stroke="black" d="M1094,-534.5C1094,-534.5 1231,-534.5 1231,-534.5 1237,-534.5 1243,-540.5 1243,-546.5 1243,-546.5 1243,-697.5 1243,-697.5 1243,-703.5 1237,-709.5 1231,-709.5 1231,-709.5 1094,-709.5 1094,-709.5 1088,-709.5 1082,-703.5 1082,-697.5 1082,-697.5 1082,-546.5 1082,-546.5 1082,-540.5 1088,-534.5 1094,-534.5"/>
<text text-anchor="middle" x="1162.5" y="-694.3" font-family="Times,serif" font-size="14.00">Api::V1::ExamsController</text>
<polyline fill="none" stroke="black" points="1082,-686.5 1243,-686.5 "/>
<polyline fill="none" stroke="black" points="1082,-662.5 1243,-662.5 "/>
<text text-anchor="start" x="1090" y="-647.3" font-family="Times,serif" font-size="14.00">I + create()</text>
<text text-anchor="start" x="1090" y="-632.3" font-family="Times,serif" font-size="14.00">I + index()</text>
<text text-anchor="start" x="1090" y="-617.3" font-family="Times,serif" font-size="14.00">I + show()</text>
<text text-anchor="start" x="1090" y="-602.3" font-family="Times,serif" font-size="14.00">I + update()</text>
<text text-anchor="start" x="1090" y="-587.3" font-family="Times,serif" font-size="14.00">I + view_exam()</text>
<text text-anchor="start" x="1090" y="-572.3" font-family="Times,serif" font-size="14.00">I &#45; exam_params()</text>
<text text-anchor="start" x="1090" y="-557.3" font-family="Times,serif" font-size="14.00">I &#45; question_params()</text>
<text text-anchor="start" x="1090" y="-542.3" font-family="Times,serif" font-size="14.00">I &#45; set_exam()</text>
</g>
<!-- Api::V1::ExamsController&#45;&gt;Api::V1 -->
<g id="edge9" class="edge">
<title>Api::V1::ExamsController&#45;&gt;Api::V1</title>
<path fill="none" stroke="black" d="M1214.83,-534.48C1249.5,-476.81 1295.74,-399.17 1335.5,-330 1342.7,-317.47 1350.45,-303.61 1357.19,-291.43"/>
<polygon fill="black" stroke="black" points="1357.26,-291.3 1356.66,-284.12 1363.06,-280.8 1363.66,-287.98 1357.26,-291.3"/>
</g>
<!-- Api::V1::ExamsController&#45;&gt;Api::V1::ApiController -->
<g id="edge22" class="edge">
<title>Api::V1::ExamsController&#45;&gt;Api::V1::ApiController</title>
<path fill="none" stroke="black" d="M1243.02,-539.58C1245.82,-537.63 1248.65,-535.76 1251.5,-534 1294.84,-507.22 1346.82,-486.86 1393.67,-472.06"/>
<polygon fill="none" stroke="black" points="1394.76,-475.38 1403.27,-469.08 1392.68,-468.7 1394.76,-475.38"/>
</g>
<!-- Api::V1::PasswordsController -->
<g id="node9" class="node">
<title>Api::V1::PasswordsController</title>
<path fill="none" stroke="black" d="M327,-415.5C327,-415.5 484,-415.5 484,-415.5 490,-415.5 496,-421.5 496,-427.5 496,-427.5 496,-450.5 496,-450.5 496,-456.5 490,-462.5 484,-462.5 484,-462.5 327,-462.5 327,-462.5 321,-462.5 315,-456.5 315,-450.5 315,-450.5 315,-427.5 315,-427.5 315,-421.5 321,-415.5 327,-415.5"/>
<text text-anchor="middle" x="405.5" y="-447.3" font-family="Times,serif" font-size="14.00">Api::V1::PasswordsController</text>
<polyline fill="none" stroke="black" points="315,-439.5 496,-439.5 "/>
</g>
<!-- Api::V1::PasswordsController&#45;&gt;Api::Concerns::ActAsApiRequest -->
<g id="edge24" class="edge">
<title>Api::V1::PasswordsController&#45;&gt;Api::Concerns::ActAsApiRequest</title>
<path fill="none" stroke="black" d="M436.78,-415.2C464.41,-395.07 506.36,-364.5 545.93,-335.66"/>
<polygon fill="none" stroke="black" points="548.32,-338.25 554.34,-329.54 544.19,-332.6 548.32,-338.25"/>
<text text-anchor="middle" x="552.5" y="-351.8" font-family="Times,serif" font-size="14.00">includes</text>
</g>
<!-- Api::V1::PasswordsController&#45;&gt;Api::V1 -->
<g id="edge10" class="edge">
<title>Api::V1::PasswordsController&#45;&gt;Api::V1</title>
<path fill="none" stroke="black" d="M461.14,-415.43C494.11,-403.08 537.04,-388.75 576.5,-381 695.38,-357.65 729.78,-387.17 848.5,-363 868.33,-358.96 871.62,-351.78 891.5,-348 940,-338.77 1293.46,-355.9 1335.5,-330 1349.29,-321.5 1358.71,-306.43 1364.93,-292.26"/>
<polygon fill="black" stroke="black" points="1365.06,-291.92 1363.51,-284.87 1369.42,-280.74 1370.97,-287.78 1365.06,-291.92"/>
</g>
<!-- DeviseTokenAuth::PasswordsController -->
<g id="node17" class="node">
<title>DeviseTokenAuth::PasswordsController</title>
<path fill="none" stroke="black" d="M12,-233.5C12,-233.5 223,-233.5 223,-233.5 229,-233.5 235,-239.5 235,-245.5 235,-245.5 235,-268.5 235,-268.5 235,-274.5 229,-280.5 223,-280.5 223,-280.5 12,-280.5 12,-280.5 6,-280.5 0,-274.5 0,-268.5 0,-268.5 0,-245.5 0,-245.5 0,-239.5 6,-233.5 12,-233.5"/>
<text text-anchor="middle" x="117.5" y="-265.3" font-family="Times,serif" font-size="14.00">DeviseTokenAuth::PasswordsController</text>
<polyline fill="none" stroke="black" points="0,-257.5 235,-257.5 "/>
</g>
<!-- Api::V1::PasswordsController&#45;&gt;DeviseTokenAuth::PasswordsController -->
<g id="edge23" class="edge">
<title>Api::V1::PasswordsController&#45;&gt;DeviseTokenAuth::PasswordsController</title>
<path fill="none" stroke="black" d="M369.32,-415.39C316.83,-382.58 219.63,-321.83 162.56,-286.16"/>
<polygon fill="none" stroke="black" points="164.1,-283 153.76,-280.66 160.39,-288.93 164.1,-283"/>
</g>
<!-- Api::V1::RegistrationsController -->
<g id="node10" class="node">
<title>Api::V1::RegistrationsController</title>
<path fill="none" stroke="black" d="M598,-396.5C598,-396.5 769,-396.5 769,-396.5 775,-396.5 781,-402.5 781,-408.5 781,-408.5 781,-469.5 781,-469.5 781,-475.5 775,-481.5 769,-481.5 769,-481.5 598,-481.5 598,-481.5 592,-481.5 586,-475.5 586,-469.5 586,-469.5 586,-408.5 586,-408.5 586,-402.5 592,-396.5 598,-396.5"/>
<text text-anchor="middle" x="683.5" y="-466.3" font-family="Times,serif" font-size="14.00">Api::V1::RegistrationsController</text>
<polyline fill="none" stroke="black" points="586,-458.5 781,-458.5 "/>
<polyline fill="none" stroke="black" points="586,-434.5 781,-434.5 "/>
<text text-anchor="start" x="594" y="-419.3" font-family="Times,serif" font-size="14.00">I &#45; sign_up_params()</text>
<text text-anchor="start" x="594" y="-404.3" font-family="Times,serif" font-size="14.00">I &#45; render_create_success()</text>
</g>
<!-- Api::V1::RegistrationsController&#45;&gt;Api::Concerns::ActAsApiRequest -->
<g id="edge26" class="edge">
<title>Api::V1::RegistrationsController&#45;&gt;Api::Concerns::ActAsApiRequest</title>
<path fill="none" stroke="black" d="M669.67,-396.31C666.55,-385.56 663.55,-373.94 661.5,-363 660.09,-355.48 658.9,-347.61 657.89,-339.71"/>
<polygon fill="none" stroke="black" points="661.36,-339.23 656.72,-329.71 654.41,-340.05 661.36,-339.23"/>
<text text-anchor="middle" x="684.5" y="-351.8" font-family="Times,serif" font-size="14.00">includes</text>
</g>
<!-- Api::V1::RegistrationsController&#45;&gt;Api::Concerns::Base64Converter -->
<g id="edge27" class="edge">
<title>Api::V1::RegistrationsController&#45;&gt;Api::Concerns::Base64Converter</title>
<path fill="none" stroke="black" d="M737.31,-396.43C763.66,-378.35 796.71,-358.85 829.5,-348 917.17,-318.99 947.43,-354.38 1036.5,-330 1047.93,-326.87 1059.54,-322.9 1071,-318.43"/>
<polygon fill="none" stroke="black" points="1072.6,-321.56 1080.57,-314.57 1069.98,-315.06 1072.6,-321.56"/>
<text text-anchor="middle" x="852.5" y="-351.8" font-family="Times,serif" font-size="14.00">includes</text>
</g>
<!-- Api::V1::RegistrationsController&#45;&gt;Api::V1 -->
<g id="edge11" class="edge">
<title>Api::V1::RegistrationsController&#45;&gt;Api::V1</title>
<path fill="none" stroke="black" d="M776.43,-396.44C791.31,-390.71 806.69,-385.32 821.5,-381 902.1,-357.5 924.1,-357.65 1007.5,-348 1043.76,-343.8 1304.56,-349.37 1335.5,-330 1349.23,-321.41 1358.64,-306.32 1364.87,-292.17"/>
<polygon fill="black" stroke="black" points="1365,-291.84 1363.46,-284.79 1369.37,-280.67 1370.91,-287.71 1365,-291.84"/>
</g>
<!-- DeviseTokenAuth::RegistrationsController -->
<g id="node18" class="node">
<title>DeviseTokenAuth::RegistrationsController</title>
<path fill="none" stroke="black" d="M265,-233.5C265,-233.5 490,-233.5 490,-233.5 496,-233.5 502,-239.5 502,-245.5 502,-245.5 502,-268.5 502,-268.5 502,-274.5 496,-280.5 490,-280.5 490,-280.5 265,-280.5 265,-280.5 259,-280.5 253,-274.5 253,-268.5 253,-268.5 253,-245.5 253,-245.5 253,-239.5 259,-233.5 265,-233.5"/>
<text text-anchor="middle" x="377.5" y="-265.3" font-family="Times,serif" font-size="14.00">DeviseTokenAuth::RegistrationsController</text>
<polyline fill="none" stroke="black" points="253,-257.5 502,-257.5 "/>
</g>
<!-- Api::V1::RegistrationsController&#45;&gt;DeviseTokenAuth::RegistrationsController -->
<g id="edge25" class="edge">
<title>Api::V1::RegistrationsController&#45;&gt;DeviseTokenAuth::RegistrationsController</title>
<path fill="none" stroke="black" d="M612.91,-396.48C555.14,-362.49 475.01,-315.36 424.73,-285.78"/>
<polygon fill="none" stroke="black" points="426.4,-282.7 416.01,-280.65 422.85,-288.74 426.4,-282.7"/>
</g>
<!-- Api::V1::SessionsController -->
<g id="node11" class="node">
<title>Api::V1::SessionsController</title>
<path fill="none" stroke="black" d="M842.5,-396.5C842.5,-396.5 988.5,-396.5 988.5,-396.5 994.5,-396.5 1000.5,-402.5 1000.5,-408.5 1000.5,-408.5 1000.5,-469.5 1000.5,-469.5 1000.5,-475.5 994.5,-481.5 988.5,-481.5 988.5,-481.5 842.5,-481.5 842.5,-481.5 836.5,-481.5 830.5,-475.5 830.5,-469.5 830.5,-469.5 830.5,-408.5 830.5,-408.5 830.5,-402.5 836.5,-396.5 842.5,-396.5"/>
<text text-anchor="middle" x="915.5" y="-466.3" font-family="Times,serif" font-size="14.00">Api::V1::SessionsController</text>
<polyline fill="none" stroke="black" points="830.5,-458.5 1000.5,-458.5 "/>
<polyline fill="none" stroke="black" points="830.5,-434.5 1000.5,-434.5 "/>
<text text-anchor="start" x="838.5" y="-419.3" font-family="Times,serif" font-size="14.00">I &#45; resource_params()</text>
<text text-anchor="start" x="838.5" y="-404.3" font-family="Times,serif" font-size="14.00">I &#45; render_create_success()</text>
</g>
<!-- Api::V1::SessionsController&#45;&gt;Api::Concerns::ActAsApiRequest -->
<g id="edge29" class="edge">
<title>Api::V1::SessionsController&#45;&gt;Api::Concerns::ActAsApiRequest</title>
<path fill="none" stroke="black" d="M830.38,-397.71C816.83,-391.81 802.87,-386.04 789.5,-381 763.85,-371.33 752.91,-378.8 730.5,-363 720.32,-355.83 710.92,-346.91 702.44,-337.32"/>
<polygon fill="none" stroke="black" points="704.97,-334.88 695.84,-329.51 699.62,-339.4 704.97,-334.88"/>
<text text-anchor="middle" x="753.5" y="-351.8" font-family="Times,serif" font-size="14.00">includes</text>
</g>
<!-- Api::V1::SessionsController&#45;&gt;Api::V1 -->
<g id="edge12" class="edge">
<title>Api::V1::SessionsController&#45;&gt;Api::V1</title>
<path fill="none" stroke="black" d="M960.67,-396.27C983.24,-378.04 1011.98,-358.46 1041.5,-348 1103.19,-326.13 1280.13,-364.9 1335.5,-330 1349.2,-321.36 1358.61,-306.27 1364.84,-292.13"/>
<polygon fill="black" stroke="black" points="1364.97,-291.8 1363.44,-284.76 1369.35,-280.63 1370.89,-287.68 1364.97,-291.8"/>
</g>
<!-- DeviseTokenAuth::SessionsController -->
<g id="node19" class="node">
<title>DeviseTokenAuth::SessionsController</title>
<path fill="none" stroke="black" d="M815.5,-233.5C815.5,-233.5 1015.5,-233.5 1015.5,-233.5 1021.5,-233.5 1027.5,-239.5 1027.5,-245.5 1027.5,-245.5 1027.5,-268.5 1027.5,-268.5 1027.5,-274.5 1021.5,-280.5 1015.5,-280.5 1015.5,-280.5 815.5,-280.5 815.5,-280.5 809.5,-280.5 803.5,-274.5 803.5,-268.5 803.5,-268.5 803.5,-245.5 803.5,-245.5 803.5,-239.5 809.5,-233.5 815.5,-233.5"/>
<text text-anchor="middle" x="915.5" y="-265.3" font-family="Times,serif" font-size="14.00">DeviseTokenAuth::SessionsController</text>
<polyline fill="none" stroke="black" points="803.5,-257.5 1027.5,-257.5 "/>
</g>
<!-- Api::V1::SessionsController&#45;&gt;DeviseTokenAuth::SessionsController -->
<g id="edge28" class="edge">
<title>Api::V1::SessionsController&#45;&gt;DeviseTokenAuth::SessionsController</title>
<path fill="none" stroke="black" d="M915.5,-396.25C915.5,-364.16 915.5,-320.44 915.5,-290.82"/>
<polygon fill="none" stroke="black" points="919,-290.59 915.5,-280.59 912,-290.59 919,-290.59"/>
</g>
<!-- Api::V1::SettingsController -->
<g id="node12" class="node">
<title>Api::V1::SettingsController</title>
<path fill="none" stroke="black" d="M1273,-579.5C1273,-579.5 1416,-579.5 1416,-579.5 1422,-579.5 1428,-585.5 1428,-591.5 1428,-591.5 1428,-652.5 1428,-652.5 1428,-658.5 1422,-664.5 1416,-664.5 1416,-664.5 1273,-664.5 1273,-664.5 1267,-664.5 1261,-658.5 1261,-652.5 1261,-652.5 1261,-591.5 1261,-591.5 1261,-585.5 1267,-579.5 1273,-579.5"/>
<text text-anchor="middle" x="1344.5" y="-649.3" font-family="Times,serif" font-size="14.00">Api::V1::SettingsController</text>
<polyline fill="none" stroke="black" points="1261,-641.5 1428,-641.5 "/>
<polyline fill="none" stroke="black" points="1261,-617.5 1428,-617.5 "/>
<text text-anchor="start" x="1269" y="-602.3" font-family="Times,serif" font-size="14.00">I + must_update()</text>
<text text-anchor="start" x="1269" y="-587.3" font-family="Times,serif" font-size="14.00">I &#45; version()</text>
</g>
<!-- Api::V1::SettingsController&#45;&gt;Api::V1 -->
<g id="edge13" class="edge">
<title>Api::V1::SettingsController&#45;&gt;Api::V1</title>
<path fill="none" stroke="black" d="M1342.54,-579.12C1340.72,-525.32 1339.8,-429.18 1351.5,-348 1354.18,-329.38 1359.38,-309.09 1364.26,-292.5"/>
<polygon fill="black" stroke="black" points="1364.38,-292.11 1362.3,-285.2 1367.88,-280.63 1369.96,-287.53 1364.38,-292.11"/>
</g>
<!-- Api::V1::SettingsController&#45;&gt;Api::V1::ApiController -->
<g id="edge30" class="edge">
<title>Api::V1::SettingsController&#45;&gt;Api::V1::ApiController</title>
<path fill="none" stroke="black" d="M1385.57,-579.47C1407.64,-557.15 1435.35,-529.14 1460.12,-504.09"/>
<polygon fill="none" stroke="black" points="1462.82,-506.33 1467.36,-496.76 1457.84,-501.41 1462.82,-506.33"/>
</g>
<!-- Api::V1::SubmissionsController -->
<g id="node13" class="node">
<title>Api::V1::SubmissionsController</title>
<path fill="none" stroke="black" d="M883,-549.5C883,-549.5 1052,-549.5 1052,-549.5 1058,-549.5 1064,-555.5 1064,-561.5 1064,-561.5 1064,-682.5 1064,-682.5 1064,-688.5 1058,-694.5 1052,-694.5 1052,-694.5 883,-694.5 883,-694.5 877,-694.5 871,-688.5 871,-682.5 871,-682.5 871,-561.5 871,-561.5 871,-555.5 877,-549.5 883,-549.5"/>
<text text-anchor="middle" x="967.5" y="-679.3" font-family="Times,serif" font-size="14.00">Api::V1::SubmissionsController</text>
<polyline fill="none" stroke="black" points="871,-671.5 1064,-671.5 "/>
<polyline fill="none" stroke="black" points="871,-647.5 1064,-647.5 "/>
<text text-anchor="start" x="879" y="-632.3" font-family="Times,serif" font-size="14.00">I + index()</text>
<text text-anchor="start" x="879" y="-617.3" font-family="Times,serif" font-size="14.00">I + create()</text>
<text text-anchor="start" x="879" y="-602.3" font-family="Times,serif" font-size="14.00">I + show()</text>
<text text-anchor="start" x="879" y="-587.3" font-family="Times,serif" font-size="14.00">I &#45; submission_params()</text>
<text text-anchor="start" x="879" y="-572.3" font-family="Times,serif" font-size="14.00">I &#45; question_answer_params()</text>
<text text-anchor="start" x="879" y="-557.3" font-family="Times,serif" font-size="14.00">I &#45; set_submission()</text>
</g>
<!-- Api::V1::SubmissionsController&#45;&gt;Api::V1 -->
<g id="edge14" class="edge">
<title>Api::V1::SubmissionsController&#45;&gt;Api::V1</title>
<path fill="none" stroke="black" d="M992.11,-549.35C1019.47,-470.62 1060.95,-354.37 1069.5,-348 1117.01,-312.6 1285.48,-361.75 1335.5,-330 1349.18,-321.32 1358.58,-306.22 1364.82,-292.09"/>
<polygon fill="black" stroke="black" points="1364.94,-291.77 1363.42,-284.72 1369.33,-280.6 1370.86,-287.65 1364.94,-291.77"/>
</g>
<!-- Api::V1::SubmissionsController&#45;&gt;Api::V1::ApiController -->
<g id="edge31" class="edge">
<title>Api::V1::SubmissionsController&#45;&gt;Api::V1::ApiController</title>
<path fill="none" stroke="black" d="M1046.17,-549.3C1054.7,-543.55 1063.54,-538.31 1072.5,-534 1173.84,-485.21 1299.93,-461.66 1393.01,-450.34"/>
<polygon fill="none" stroke="black" points="1393.53,-453.8 1403.05,-449.15 1392.7,-446.85 1393.53,-453.8"/>
</g>
<!-- Api::V1::UsersController -->
<g id="node14" class="node">
<title>Api::V1::UsersController</title>
<path fill="none" stroke="black" d="M1663,-564.5C1663,-564.5 1794,-564.5 1794,-564.5 1800,-564.5 1806,-570.5 1806,-576.5 1806,-576.5 1806,-667.5 1806,-667.5 1806,-673.5 1800,-679.5 1794,-679.5 1794,-679.5 1663,-679.5 1663,-679.5 1657,-679.5 1651,-673.5 1651,-667.5 1651,-667.5 1651,-576.5 1651,-576.5 1651,-570.5 1657,-564.5 1663,-564.5"/>
<text text-anchor="middle" x="1728.5" y="-664.3" font-family="Times,serif" font-size="14.00">Api::V1::UsersController</text>
<polyline fill="none" stroke="black" points="1651,-656.5 1806,-656.5 "/>
<polyline fill="none" stroke="black" points="1651,-632.5 1806,-632.5 "/>
<text text-anchor="start" x="1659" y="-617.3" font-family="Times,serif" font-size="14.00">I + show()</text>
<text text-anchor="start" x="1659" y="-602.3" font-family="Times,serif" font-size="14.00">I + update()</text>
<text text-anchor="start" x="1659" y="-587.3" font-family="Times,serif" font-size="14.00">I &#45; auth_user()</text>
<text text-anchor="start" x="1659" y="-572.3" font-family="Times,serif" font-size="14.00">I &#45; user_params()</text>
</g>
<!-- Api::V1::UsersController&#45;&gt;Api::V1 -->
<g id="edge15" class="edge">
<title>Api::V1::UsersController&#45;&gt;Api::V1</title>
<path fill="none" stroke="black" d="M1726.23,-564.4C1720.88,-509.53 1704.07,-427.9 1652.5,-381 1612.65,-344.75 1458.78,-362.08 1415.5,-330 1402.67,-320.49 1393.42,-305.57 1387.07,-291.77"/>
<polygon fill="black" stroke="black" points="1387.02,-291.66 1381.02,-287.66 1382.4,-280.58 1388.4,-284.58 1387.02,-291.66"/>
</g>
<!-- Api::V1::UsersController&#45;&gt;Api::V1::ApiController -->
<g id="edge32" class="edge">
<title>Api::V1::UsersController&#45;&gt;Api::V1::ApiController</title>
<path fill="none" stroke="black" d="M1673.71,-564.35C1663.22,-554.04 1652.17,-543.53 1641.5,-534 1630.04,-523.77 1617.64,-513.29 1605.33,-503.21"/>
<polygon fill="none" stroke="black" points="1607.23,-500.25 1597.26,-496.66 1602.82,-505.68 1607.23,-500.25"/>
</g>
<!-- ApplicationController -->
<g id="node15" class="node">
<title>ApplicationController</title>
<path fill="none" stroke="black" d="M2095,-404C2095,-404 2256,-404 2256,-404 2262,-404 2268,-410 2268,-416 2268,-416 2268,-462 2268,-462 2268,-468 2262,-474 2256,-474 2256,-474 2095,-474 2095,-474 2089,-474 2083,-468 2083,-462 2083,-462 2083,-416 2083,-416 2083,-410 2089,-404 2095,-404"/>
<text text-anchor="middle" x="2175.5" y="-458.8" font-family="Times,serif" font-size="14.00">ApplicationController</text>
<polyline fill="none" stroke="black" points="2083,-451 2268,-451 "/>
<polyline fill="none" stroke="black" points="2083,-427 2268,-427 "/>
<text text-anchor="start" x="2091" y="-411.8" font-family="Times,serif" font-size="14.00">I + active_admin_controller?()</text>
</g>
<!-- ActionController::Base -->
<g id="node20" class="node">
<title>ActionController::Base</title>
<path fill="none" stroke="black" d="M2158,-233.5C2158,-233.5 2277,-233.5 2277,-233.5 2283,-233.5 2289,-239.5 2289,-245.5 2289,-245.5 2289,-268.5 2289,-268.5 2289,-274.5 2283,-280.5 2277,-280.5 2277,-280.5 2158,-280.5 2158,-280.5 2152,-280.5 2146,-274.5 2146,-268.5 2146,-268.5 2146,-245.5 2146,-245.5 2146,-239.5 2152,-233.5 2158,-233.5"/>
<text text-anchor="middle" x="2217.5" y="-265.3" font-family="Times,serif" font-size="14.00">ActionController::Base</text>
<polyline fill="none" stroke="black" points="2146,-257.5 2289,-257.5 "/>
</g>
<!-- ApplicationController&#45;&gt;ActionController::Base -->
<g id="edge33" class="edge">
<title>ApplicationController&#45;&gt;ActionController::Base</title>
<path fill="none" stroke="black" d="M2183.5,-403.72C2191.1,-371.14 2202.45,-322.49 2209.91,-290.51"/>
<polygon fill="none" stroke="black" points="2213.33,-291.28 2212.19,-280.75 2206.51,-289.69 2213.33,-291.28"/>
</g>
<!-- ApplicationController&#45;&gt;Pundit::Authorization -->
<g id="edge34" class="edge">
<title>ApplicationController&#45;&gt;Pundit::Authorization</title>
<path fill="none" stroke="black" d="M2149.79,-403.72C2123.5,-368.66 2083.26,-315.01 2059.64,-283.52"/>
<polygon fill="none" stroke="black" points="2062.25,-281.16 2053.45,-275.26 2056.65,-285.36 2062.25,-281.16"/>
<text text-anchor="middle" x="2138.5" y="-351.8" font-family="Times,serif" font-size="14.00">includes</text>
</g>
</g>
</svg>
